<?xml version="1.0" standalone="no"?>
<!DOCTYPE svg PUBLIC "-//W3C//DTD SVG 20010904//EN"
 "http://www.w3.org/TR/2001/REC-SVG-20010904/DTD/svg10.dtd">
<svg version="1.0" xmlns="http://www.w3.org/2000/svg"
 width="260.000000pt" height="260.000000pt" viewBox="0 0 260.000000 260.000000"
 preserveAspectRatio="xMidYMid meet">
<metadata>
Created by potrace 1.14, written by Peter Selinger 2001-2017
</metadata>
<g transform="translate(0.000000,260.000000) scale(0.100000,-0.100000)"
fill="#000000" stroke="none">
<path d="M1983 2554 c0 -14 -7 -31 -13 -38 -10 -8 -11 -8 -5 3 5 9 4 12 -3 8
-5 -4 -8 -16 -5 -27 3 -11 -2 -31 -10 -44 -9 -13 -14 -32 -13 -42 2 -10 -3
-23 -11 -29 -7 -5 -14 -22 -15 -37 -1 -15 -6 -24 -10 -22 -9 6 -10 3 -13 -41
-1 -17 -7 -29 -13 -28 -11 3 -16 -12 -15 -44 0 -7 -4 -11 -9 -10 -6 1 -12 -9
-14 -23 -3 -13 -10 -28 -17 -32 -6 -4 -12 -17 -12 -28 0 -11 -4 -24 -10 -28
-10 -7 -17 -27 -18 -49 0 -7 -5 -11 -11 -10 -6 1 -10 -10 -10 -25 1 -17 -4
-28 -12 -28 -8 0 -14 -7 -14 -16 0 -8 -7 -22 -16 -31 -8 -9 -13 -22 -10 -29 3
-8 -1 -14 -11 -14 -9 0 -13 -3 -10 -6 3 -4 -2 -18 -13 -32 -11 -13 -17 -28
-14 -33 3 -5 -2 -12 -10 -15 -9 -3 -16 -14 -16 -24 0 -10 -4 -20 -9 -22 -5 -1
-11 -9 -13 -17 -2 -8 -10 -22 -18 -32 -34 -40 -40 -49 -39 -56 3 -18 -2 -34
-8 -30 -11 6 -38 -25 -38 -43 0 -8 -12 -28 -28 -44 -15 -16 -26 -35 -23 -42 3
-8 -1 -14 -10 -14 -8 0 -12 -4 -9 -10 3 -5 -1 -10 -9 -10 -9 0 -16 -8 -16 -19
0 -24 -72 -100 -78 -83 -2 7 -9 9 -14 6 -6 -4 -8 -3 -5 3 4 5 -2 19 -12 29
-10 11 -17 27 -15 37 1 9 -1 17 -6 17 -12 0 -31 60 -23 73 3 6 1 7 -5 3 -11
-7 -14 -3 -16 27 -1 6 -9 20 -20 31 -15 15 -16 20 -5 27 10 6 10 9 2 9 -7 0
-10 7 -7 15 4 9 0 15 -9 15 -10 0 -14 8 -12 25 1 17 -4 29 -18 36 -14 8 -16
13 -7 19 9 5 9 9 1 14 -6 4 -9 11 -6 16 3 5 1 11 -5 15 -6 4 -8 11 -5 16 4 5
1 9 -4 9 -6 0 -11 16 -11 36 0 21 -4 33 -10 29 -10 -6 -14 6 -11 38 1 9 -5 24
-14 33 -10 10 -14 28 -12 50 3 18 1 32 -2 30 -12 -8 -26 20 -28 54 -1 19 -6
36 -12 38 -6 2 -11 24 -11 48 0 29 -5 47 -14 50 -9 3 -13 18 -11 42 2 21 -3
44 -11 52 -12 15 -14 30 -13 99 0 13 -8 33 -18 44 -10 11 -12 17 -4 12 11 -6
12 -5 5 6 -5 8 -9 25 -9 39 0 22 -5 25 -45 28 -29 2 -48 -1 -55 -11 -7 -9 -28
-13 -63 -12 -30 1 -56 -4 -60 -10 -10 -16 -42 -27 -42 -14 0 6 -6 7 -12 2 -7
-4 -21 -6 -31 -5 -10 2 -17 -3 -17 -12 0 -11 -10 -14 -46 -12 -31 2 -48 -2
-51 -11 -3 -7 -20 -13 -39 -13 -22 0 -37 -6 -40 -15 -4 -8 -10 -12 -15 -9 -21
12 -7 -18 21 -46 32 -32 38 -46 18 -34 -7 3 3 -9 22 -27 20 -19 34 -41 33 -49
-2 -8 10 -24 26 -34 18 -12 27 -25 23 -34 -3 -8 2 -20 12 -27 9 -7 16 -17 15
-21 -4 -21 2 -35 11 -29 6 3 10 -3 10 -14 0 -12 5 -21 11 -21 5 0 7 -4 4 -10
-3 -5 -1 -10 5 -10 7 0 10 -7 7 -14 -4 -9 2 -17 14 -21 10 -4 19 -11 19 -16 0
-6 -6 -7 -12 -3 -7 5 -3 -5 10 -20 12 -16 20 -32 17 -36 -3 -4 2 -11 11 -14 9
-4 14 -13 10 -21 -3 -8 -1 -15 4 -15 6 0 9 -6 7 -12 -1 -7 3 -12 10 -11 6 1
10 -5 8 -15 -1 -9 3 -20 9 -24 8 -5 7 -8 -1 -8 -8 0 -5 -8 8 -21 11 -11 18
-27 15 -35 -3 -8 1 -14 9 -14 8 0 12 -8 10 -19 -2 -11 3 -22 11 -25 8 -3 14
-15 14 -26 0 -12 7 -28 16 -37 8 -9 13 -21 11 -28 -3 -6 4 -17 15 -24 17 -11
18 -15 7 -22 -10 -6 -10 -9 -1 -9 6 0 12 -5 12 -10 0 -6 9 -30 20 -52 11 -23
20 -48 20 -55 0 -7 6 -13 14 -13 8 0 12 -9 11 -25 -2 -15 2 -25 9 -25 8 0 13
-13 14 -32 0 -18 7 -37 15 -43 8 -5 13 -18 11 -28 -1 -10 4 -21 12 -24 8 -3
14 -16 14 -29 0 -14 6 -27 14 -30 8 -3 13 -16 11 -29 -1 -14 6 -32 16 -41 14
-13 16 -21 8 -36 -5 -10 -13 -16 -18 -14 -4 3 -7 -20 -6 -49 0 -36 -4 -56 -12
-59 -8 -4 -13 -25 -13 -60 0 -31 -5 -58 -12 -62 -7 -5 -8 -3 -3 6 5 8 4 11 -2
7 -6 -4 -10 -24 -8 -44 3 -46 -3 -65 -19 -56 -6 4 -5 -1 3 -10 11 -14 11 -18
-1 -22 -14 -6 -17 -42 -5 -62 4 -6 0 -14 -9 -17 -8 -3 -12 -10 -9 -16 3 -5 2
-10 -4 -10 -6 0 -9 -13 -7 -30 2 -16 -3 -38 -10 -47 -7 -10 -14 -37 -14 -61 0
-24 -4 -41 -9 -38 -12 8 -18 -12 -17 -52 1 -17 -2 -32 -6 -32 -5 0 -8 -7 -8
-15 0 -8 -4 -15 -9 -15 -4 0 -7 -13 -5 -29 2 -18 -2 -31 -10 -34 -9 -4 -13
-17 -11 -32 1 -14 -4 -32 -11 -40 -7 -7 -15 -27 -16 -43 -1 -17 -7 -30 -12
-29 -9 2 -12 -14 -7 -41 0 -4 11 -8 23 -9 11 -1 24 -6 27 -11 9 -14 90 -20 95
-7 2 5 10 2 18 -9 12 -16 29 -19 105 -20 57 -1 97 -6 106 -14 9 -8 36 -12 69
-10 l53 3 1 101 c1 56 4 106 8 113 4 6 4 11 -1 11 -10 0 -8 93 1 109 4 6 3 11
-2 11 -14 0 -3 94 14 106 12 9 12 13 2 17 -7 3 -8 6 -3 6 6 1 9 36 8 91 -1 50
1 88 6 86 10 -6 32 40 23 48 -10 10 -9 87 1 93 5 3 3 9 -4 14 -10 6 -11 9 -1
9 6 0 12 7 12 15 0 8 4 15 9 15 6 0 9 9 8 20 -1 11 -5 20 -10 20 -5 0 -5 6 1
13 5 6 8 23 7 37 -1 14 3 32 10 40 7 8 13 31 13 50 1 61 6 89 17 87 5 -1 9 8
7 21 -2 12 4 29 12 38 9 9 14 20 11 25 -4 5 -1 9 5 9 6 0 9 4 6 9 -4 5 -1 11
4 13 6 2 12 13 13 26 0 12 9 25 19 28 10 3 16 10 13 15 -4 5 -1 9 5 9 7 0 10
6 7 13 -5 13 17 39 27 30 3 -3 4 4 1 16 -2 12 3 26 13 33 9 7 18 20 20 28 2 8
8 17 13 18 5 2 9 10 9 18 0 8 5 14 10 14 6 0 10 8 10 18 0 21 35 62 53 62 9 0
9 2 -1 8 -9 7 -8 14 8 32 11 13 20 27 20 31 0 5 10 20 23 35 12 14 22 29 22
32 1 14 30 52 40 52 6 0 11 9 12 21 1 11 14 32 28 45 14 13 25 32 23 41 -2 10
2 17 9 16 6 -2 15 6 18 17 4 11 11 20 16 20 5 0 9 8 9 18 0 10 12 29 26 43 15
14 23 31 20 42 -3 13 0 17 10 13 8 -3 14 1 14 8 0 8 7 17 16 20 10 4 14 14 11
26 -3 11 -1 20 3 20 15 0 59 49 47 53 -6 2 4 17 21 34 18 16 32 35 32 41 0 6
11 23 25 38 14 15 25 31 25 37 0 5 6 7 14 4 9 -4 12 0 9 12 -5 18 30 65 41 54
3 -3 6 6 6 21 0 14 7 29 15 32 8 4 15 13 15 21 0 8 4 12 9 9 5 -3 11 3 14 13
5 20 -9 41 -28 41 -6 0 -21 9 -33 20 -12 12 -22 18 -22 14 0 -3 -7 -1 -15 6
-8 6 -18 9 -24 6 -5 -4 -16 1 -24 9 -11 10 -36 15 -84 15 -66 0 -68 -1 -70
-26z"/>
</g>
</svg>
